<svg width="1200" height="1400" viewBox="0 0 1200 1400" fill="none" xmlns="http://www.w3.org/2000/svg">
  <rect width="1200" height="1400" fill="#E8EDE2"/>
  <rect x="72" y="72" width="1056" height="1256" rx="44" fill="#F7F5EE" stroke="#CFD7C1" stroke-width="2"/>
  <rect x="148" y="148" width="904" height="1104" rx="40" fill="url(#paint0_linear)"/>
  <ellipse cx="600" cy="1078" rx="314" ry="82" fill="#AFC89E" fill-opacity="0.35"/>
  <path d="M472 928C472 760.488 607.809 624.68 775.32 624.68H821.68C917.389 624.68 995 702.29 995 798V798C995 893.71 917.389 971.32 821.68 971.32H516C491.699 971.32 472 951.621 472 927.32V928Z" fill="#171411"/>
  <path d="M520 856C520 721.206 629.206 612 764 612H792C926.794 612 1036 721.206 1036 856V856C1036 990.794 926.794 1100 792 1100H564C539.699 1100 520 1080.3 520 1056V856Z" fill="#23211E"/>
  <path d="M280 1026L740 618" stroke="#B8965D" stroke-width="18" stroke-linecap="round"/>
  <path d="M308 1058L768 650" stroke="#F6F1E8" stroke-opacity="0.44" stroke-width="6" stroke-linecap="round"/>
  <path d="M380 974C380 884.53 452.53 812 542 812H588C677.47 812 750 884.53 750 974V974C750 1063.47 677.47 1136 588 1136H542C452.53 1136 380 1063.47 380 974V974Z" fill="#F3EDE0" stroke="#D7C7AB" stroke-width="3"/>
  <circle cx="312" cy="880" r="46" fill="#F9F7F2"/>
  <circle cx="296" cy="864" r="5" fill="#D9D9D9"/>
  <circle cx="328" cy="864" r="5" fill="#D9D9D9"/>
  <circle cx="296" cy="896" r="5" fill="#D9D9D9"/>
  <circle cx="328" cy="896" r="5" fill="#D9D9D9"/>
  <text x="148" y="1194" fill="#171411" font-family="Georgia, serif" font-size="68" letter-spacing="4">TOUR EDITION</text>
  <text x="148" y="1262" fill="#66705F" font-family="Arial, sans-serif" font-size="30" letter-spacing="6">CLUB-INSPIRED GOLF COLLECTION</text>
  <defs>
    <linearGradient id="paint0_linear" x1="600" y1="148" x2="600" y2="1252" gradientUnits="userSpaceOnUse">
      <stop stop-color="#F4F7EE"/>
      <stop offset="1" stop-color="#DFE6D7"/>
    </linearGradient>
  </defs>
</svg>
